<svg width="22" height="29" viewBox="0 0 22 29" fill="none" xmlns="http://www.w3.org/2000/svg">
<path d="M15.4522 20.2645L0.0481939 28.5089C0.0317608 28.5177 0.0132907 28.5012 0.0201674 28.4838L11.302 0.0623614C11.3093 0.0438865 11.3362 0.0462615 11.3402 0.0657365L15.4624 20.2428C15.4641 20.2515 15.46 20.2603 15.4522 20.2645Z" fill="#0C89E4"/>
<path d="M6.54826 20.0469L21.9531 28.2917C21.9694 28.3004 21.9877 28.2843 21.9812 28.267L11.3497 0.0610203C11.3428 0.0425731 11.3162 0.0442484 11.3116 0.0634219L6.53824 20.0246C6.53613 20.0334 6.54024 20.0426 6.54826 20.0469Z" fill="#FF585E"/>
<path fill-rule="evenodd" clip-rule="evenodd" d="M11.202 22.5662L6.547 20.0933C6.53895 20.0891 6.53481 20.0799 6.53693 20.071L11.2356 0.420585L11.3007 0.257939C11.308 0.239522 11.3348 0.241905 11.3388 0.261333L15.461 20.2875C15.4628 20.2962 15.4586 20.305 15.4508 20.3092L11.202 22.5662Z" fill="#434343"/>
</svg>
