<svg width="74" height="55" viewBox="0 0 74 55" fill="none" xmlns="http://www.w3.org/2000/svg">
<g opacity="0.6">
<path d="M45.796 39.0528L16.0482 54.9742C16.0318 54.983 16.0133 54.9665 16.0202 54.9492L37.8073 0.0623614C37.8146 0.0438865 37.8415 0.0462646 37.8455 0.0657396L45.8062 39.0312C45.8079 39.0399 45.8038 39.0487 45.796 39.0528Z" fill="#0C89E4"/>
<path d="M28.6091 38.6332L58.3577 54.555C58.374 54.5637 58.3924 54.5476 58.3859 54.5303L37.8551 0.0609593C37.8482 0.0425121 37.8216 0.0441889 37.817 0.0633624L28.5991 38.6109C28.597 38.6197 28.6011 38.6289 28.6091 38.6332Z" fill="#FF585E"/>
<path fill-rule="evenodd" clip-rule="evenodd" d="M37.5914 43.4959L28.6063 38.7229C28.5983 38.7186 28.5941 38.7094 28.5963 38.7006L37.6564 0.810186L37.8045 0.439854C37.8118 0.421437 37.8386 0.423819 37.8426 0.443247L45.8033 39.1174C45.8051 39.1261 45.8009 39.1349 45.7931 39.1391L37.5914 43.4959Z" fill="#434343"/>
</g>
<mask id="path-4-outside-1_191_2726" maskUnits="userSpaceOnUse" x="1" y="13" width="73" height="29" fill="black">
<rect fill="white" x="1" y="13" width="73" height="29"/>
<path d="M1.98153 41V14.8182H20.2372V19.9574H8.30966V25.3267H19.304V30.4787H8.30966V35.8608H20.2372V41H1.98153ZM25.9491 41V36.4489L35.4989 28.0881C36.2148 27.4403 36.8241 26.848 37.327 26.3111C37.8298 25.7656 38.2134 25.2202 38.4776 24.6747C38.7418 24.1207 38.8739 23.5199 38.8739 22.8722C38.8739 22.1477 38.7162 21.5298 38.4009 21.0185C38.0855 20.4986 37.6509 20.098 37.0969 19.8168C36.5429 19.5355 35.908 19.3949 35.192 19.3949C34.4676 19.3949 33.8327 19.544 33.2872 19.8423C32.7418 20.1321 32.3156 20.554 32.0088 21.108C31.7105 21.6619 31.5614 22.3352 31.5614 23.1278H25.5656C25.5656 21.3466 25.9662 19.8082 26.7673 18.5128C27.5685 17.2173 28.6935 16.2202 30.1423 15.5213C31.5997 14.8139 33.2915 14.4602 35.2176 14.4602C37.2034 14.4602 38.9293 14.7926 40.3952 15.4574C41.8611 16.1222 42.9946 17.0511 43.7957 18.2443C44.6054 19.429 45.0102 20.8054 45.0102 22.3736C45.0102 23.3707 44.8099 24.3594 44.4094 25.3395C44.0088 26.3196 43.2886 27.402 42.2489 28.5866C41.2176 29.7713 39.7517 31.1903 37.8511 32.8438L34.719 35.733V35.8991H45.3298V41H25.9491ZM50.7573 41V14.8182H61.5727C63.5329 14.8182 65.2246 15.1719 66.6479 15.8793C68.0798 16.5781 69.1835 17.5838 69.959 18.8963C70.7346 20.2003 71.1224 21.7472 71.1224 23.5369C71.1224 25.3523 70.7261 26.8949 69.9334 28.1648C69.1408 29.4261 68.0158 30.3892 66.5585 31.054C65.1011 31.7102 63.3752 32.0384 61.3809 32.0384H54.5414V27.0526H60.2048C61.1593 27.0526 61.9562 26.929 62.5954 26.6818C63.2431 26.4261 63.7332 26.0426 64.0656 25.5312C64.3979 25.0114 64.5641 24.3466 64.5641 23.5369C64.5641 22.7273 64.3979 22.0582 64.0656 21.5298C63.7332 20.9929 63.2431 20.5923 62.5954 20.3281C61.9477 20.0554 61.1508 19.919 60.2048 19.919H57.0854V41H50.7573ZM65.4974 29.0341L72.0173 41H65.1138L58.7218 29.0341H65.4974Z"/>
</mask>
<path d="M1.98153 41H1.23153V41.75H1.98153V41ZM1.98153 14.8182V14.0682H1.23153V14.8182H1.98153ZM20.2372 14.8182H20.9872V14.0682H20.2372V14.8182ZM20.2372 19.9574V20.7074H20.9872V19.9574H20.2372ZM8.30966 19.9574V19.2074H7.55966V19.9574H8.30966ZM8.30966 25.3267H7.55966V26.0767H8.30966V25.3267ZM19.304 25.3267H20.054V24.5767H19.304V25.3267ZM19.304 30.4787V31.2287H20.054V30.4787H19.304ZM8.30966 30.4787V29.7287H7.55966V30.4787H8.30966ZM8.30966 35.8608H7.55966V36.6108H8.30966V35.8608ZM20.2372 35.8608H20.9872V35.1108H20.2372V35.8608ZM20.2372 41V41.75H20.9872V41H20.2372ZM2.73153 41V14.8182H1.23153V41H2.73153ZM1.98153 15.5682H20.2372V14.0682H1.98153V15.5682ZM19.4872 14.8182V19.9574H20.9872V14.8182H19.4872ZM20.2372 19.2074H8.30966V20.7074H20.2372V19.2074ZM7.55966 19.9574V25.3267H9.05966V19.9574H7.55966ZM8.30966 26.0767H19.304V24.5767H8.30966V26.0767ZM18.554 25.3267V30.4787H20.054V25.3267H18.554ZM19.304 29.7287H8.30966V31.2287H19.304V29.7287ZM7.55966 30.4787V35.8608H9.05966V30.4787H7.55966ZM8.30966 36.6108H20.2372V35.1108H8.30966V36.6108ZM19.4872 35.8608V41H20.9872V35.8608H19.4872ZM20.2372 40.25H1.98153V41.75H20.2372V40.25ZM25.9491 41H25.1991V41.75H25.9491V41ZM25.9491 36.4489L25.4551 35.8846L25.1991 36.1087V36.4489H25.9491ZM35.4989 28.0881L35.993 28.6524L36.002 28.6442L35.4989 28.0881ZM37.327 26.3111L37.8744 26.8238L37.8784 26.8194L37.327 26.3111ZM38.4776 24.6747L39.1526 25.0017L39.1545 24.9976L38.4776 24.6747ZM38.4009 21.0185L37.7596 21.4074L37.7625 21.4121L38.4009 21.0185ZM37.0969 19.8168L36.7574 20.4855L37.0969 19.8168ZM33.2872 19.8423L33.6391 20.5047L33.6471 20.5004L33.2872 19.8423ZM32.0088 21.108L31.3527 20.7446L31.3485 20.7524L32.0088 21.108ZM31.5614 23.1278V23.8778H32.3114V23.1278H31.5614ZM25.5656 23.1278H24.8156V23.8778H25.5656V23.1278ZM26.7673 18.5128L27.4052 18.9073V18.9073L26.7673 18.5128ZM30.1423 15.5213L30.4682 16.1968L30.4698 16.196L30.1423 15.5213ZM40.3952 15.4574L40.7049 14.7743V14.7743L40.3952 15.4574ZM43.7957 18.2443L43.173 18.6624L43.1765 18.6675L43.7957 18.2443ZM44.4094 25.3395L43.7151 25.0557V25.0557L44.4094 25.3395ZM42.2489 28.5866L41.6852 28.0919L41.6832 28.0942L42.2489 28.5866ZM37.8511 32.8438L37.3589 32.2779L37.3506 32.2851L37.3426 32.2925L37.8511 32.8438ZM34.719 35.733L34.2105 35.1817L33.969 35.4044V35.733H34.719ZM34.719 35.8991H33.969V36.6491H34.719V35.8991ZM45.3298 35.8991H46.0798V35.1491H45.3298V35.8991ZM45.3298 41V41.75H46.0798V41H45.3298ZM26.6991 41V36.4489H25.1991V41H26.6991ZM26.4432 37.0132L35.9929 28.6524L35.0048 27.5238L25.4551 35.8846L26.4432 37.0132ZM36.002 28.6442C36.7289 27.9866 37.3539 27.3796 37.8744 26.8237L36.7796 25.7984C36.2944 26.3164 35.7007 26.8941 34.9957 27.5319L36.002 28.6442ZM37.8784 26.8194C38.4204 26.2315 38.85 25.6262 39.1525 25.0017L37.8026 24.3478C37.5767 24.8142 37.2393 25.2997 36.7756 25.8027L37.8784 26.8194ZM39.1545 24.9976C39.4695 24.3372 39.6239 23.6253 39.6239 22.8722H38.1239C38.1239 23.4145 38.0141 23.9043 37.8006 24.3519L39.1545 24.9976ZM39.6239 22.8722C39.6239 22.0375 39.4413 21.2768 39.0392 20.6248L37.7625 21.4121C37.9911 21.7828 38.1239 22.258 38.1239 22.8722H39.6239ZM39.0421 20.6295C38.6526 19.9873 38.1122 19.4911 37.4364 19.148L36.7574 20.4855C37.1895 20.7049 37.5184 21.0098 37.7596 21.4074L39.0421 20.6295ZM37.4364 19.148C36.7622 18.8057 36.0079 18.6449 35.192 18.6449V20.1449C35.808 20.1449 36.3236 20.2653 36.7574 20.4855L37.4364 19.148ZM35.192 18.6449C34.3627 18.6449 33.6001 18.8164 32.9274 19.1843L33.6471 20.5004C34.0652 20.2717 34.5725 20.1449 35.192 20.1449V18.6449ZM32.9354 19.18C32.2583 19.5397 31.728 20.067 31.3527 20.7446L32.6649 21.4713C32.9033 21.0409 33.2252 20.7245 33.6391 20.5047L32.9354 19.18ZM31.3485 20.7524C30.978 21.4404 30.8114 22.2427 30.8114 23.1278H32.3114C32.3114 22.4278 32.4431 21.8834 32.6692 21.4635L31.3485 20.7524ZM31.5614 22.3778H25.5656V23.8778H31.5614V22.3778ZM26.3156 23.1278C26.3156 21.462 26.689 20.0653 27.4052 18.9073L26.1295 18.1183C25.2434 19.5511 24.8156 21.2312 24.8156 23.1278H26.3156ZM27.4052 18.9073C28.1269 17.7402 29.1404 16.8373 30.4682 16.1968L29.8165 14.8458C28.2465 15.6031 27.01 16.6944 26.1295 18.1183L27.4052 18.9073ZM30.4698 16.196C31.8076 15.5467 33.3837 15.2102 35.2176 15.2102V13.7102C33.1993 13.7102 31.3918 14.0812 29.8148 14.8466L30.4698 16.196ZM35.2176 15.2102C37.1209 15.2102 38.7368 15.5288 40.0854 16.1404L40.7049 14.7743C39.1217 14.0564 37.2859 13.7102 35.2176 13.7102V15.2102ZM40.0854 16.1404C41.4401 16.7548 42.4587 17.5984 43.1731 18.6624L44.4184 17.8262C43.5305 16.5039 42.2821 15.4896 40.7049 14.7743L40.0854 16.1404ZM43.1765 18.6675C43.8931 19.7159 44.2602 20.9417 44.2602 22.3736H45.7602C45.7602 20.6691 45.3177 19.1421 44.4149 17.8211L43.1765 18.6675ZM44.2602 22.3736C44.2602 23.2675 44.0812 24.1601 43.7151 25.0557L45.1036 25.6232C45.5387 24.5587 45.7602 23.474 45.7602 22.3736H44.2602ZM43.7151 25.0557C43.3574 25.9309 42.6942 26.9423 41.6852 28.0919L42.8125 29.0814C43.8831 27.8617 44.6602 26.7083 45.1036 25.6232L43.7151 25.0557ZM41.6832 28.0942C40.684 29.242 39.2469 30.6354 37.3589 32.2779L38.3434 33.4096C40.2565 31.7453 41.7512 30.3006 42.8146 29.0791L41.6832 28.0942ZM37.3426 32.2925L34.2105 35.1817L35.2276 36.2842L38.3597 33.395L37.3426 32.2925ZM33.969 35.733V35.8991H35.469V35.733H33.969ZM34.719 36.6491H45.3298V35.1491H34.719V36.6491ZM44.5798 35.8991V41H46.0798V35.8991H44.5798ZM45.3298 40.25H25.9491V41.75H45.3298V40.25ZM50.7573 41H50.0073V41.75H50.7573V41ZM50.7573 14.8182V14.0682H50.0073V14.8182H50.7573ZM66.6479 15.8793L66.3141 16.5509L66.319 16.5533L66.6479 15.8793ZM69.959 18.8963L69.3133 19.2779L69.3144 19.2797L69.959 18.8963ZM69.9334 28.1648L70.5685 28.5638L70.5697 28.5619L69.9334 28.1648ZM66.5584 31.054L66.8664 31.7379L66.8697 31.7363L66.5584 31.054ZM54.5414 32.0384H53.7914V32.7884H54.5414V32.0384ZM54.5414 27.0526V26.3026H53.7914V27.0526H54.5414ZM62.5954 26.6818L62.8659 27.3814L62.8708 27.3794L62.5954 26.6818ZM64.0656 25.5312L64.6944 25.94L64.6974 25.9352L64.0656 25.5312ZM64.0656 21.5298L63.4278 21.9246L63.4307 21.9292L64.0656 21.5298ZM62.5954 20.3281L62.3043 21.0194L62.3121 21.0226L62.5954 20.3281ZM57.0854 19.919V19.169H56.3354V19.919H57.0854ZM57.0854 41V41.75H57.8354V41H57.0854ZM65.4974 29.0341L66.156 28.6752L65.9428 28.2841H65.4974V29.0341ZM72.0173 41V41.75H73.28L72.6758 40.6412L72.0173 41ZM65.1138 41L64.4523 41.3534L64.6642 41.75H65.1138V41ZM58.7218 29.0341V28.2841H57.4709L58.0603 29.3875L58.7218 29.0341ZM51.5073 41V14.8182H50.0073V41H51.5073ZM50.7573 15.5682H61.5727V14.0682H50.7573V15.5682ZM61.5727 15.5682C63.4436 15.5682 65.0159 15.9057 66.3141 16.5509L66.9817 15.2076C65.4333 14.4381 63.6222 14.0682 61.5727 14.0682V15.5682ZM66.319 16.5533C67.6251 17.1908 68.6159 18.0976 69.3133 19.2779L70.6047 18.5148C69.751 17.07 68.5344 15.9655 66.9769 15.2053L66.319 16.5533ZM69.3144 19.2797C70.0095 20.4483 70.3724 21.8576 70.3724 23.5369H71.8724C71.8724 21.6367 71.4597 19.9522 70.6036 18.5129L69.3144 19.2797ZM70.3724 23.5369C70.3724 25.2419 70.001 26.64 69.2972 27.7677L70.5697 28.5619C71.4511 27.1498 71.8724 25.4627 71.8724 23.5369H70.3724ZM69.2984 27.7657C68.5897 28.8936 67.5818 29.7628 66.2472 30.3716L66.8697 31.7363C68.4499 31.0156 69.692 29.9586 70.5685 28.5638L69.2984 27.7657ZM66.2505 30.3701C64.9108 30.9734 63.2946 31.2884 61.3809 31.2884V32.7884C63.4558 32.7884 65.2913 32.4471 66.8664 31.7378L66.2505 30.3701ZM61.3809 31.2884H54.5414V32.7884H61.3809V31.2884ZM55.2914 32.0384V27.0526H53.7914V32.0384H55.2914ZM54.5414 27.8026H60.2048V26.3026H54.5414V27.8026ZM60.2048 27.8026C61.2181 27.8026 62.1137 27.6722 62.8659 27.3813L62.3249 25.9823C61.7986 26.1858 61.1005 26.3026 60.2048 26.3026V27.8026ZM62.8708 27.3794C63.6421 27.0749 64.2654 26.6 64.6944 25.94L63.4367 25.1225C63.201 25.4852 62.8441 25.7773 62.32 25.9842L62.8708 27.3794ZM64.6974 25.9352C65.1276 25.2624 65.3141 24.4459 65.3141 23.5369H63.8141C63.8141 24.2473 63.6683 24.7603 63.4337 25.1273L64.6974 25.9352ZM65.3141 23.5369C65.3141 22.6273 65.1273 21.8092 64.7004 21.1305L63.4307 21.9292C63.6685 22.3073 63.8141 22.8273 63.8141 23.5369H65.3141ZM64.7033 21.1351C64.2784 20.4488 63.6566 19.951 62.8786 19.6337L62.3121 21.0226C62.8296 21.2337 63.1879 21.537 63.4279 21.9246L64.7033 21.1351ZM62.8864 19.6369C62.1206 19.3145 61.2181 19.169 60.2048 19.169V20.669C61.0834 20.669 61.7747 20.7963 62.3043 21.0194L62.8864 19.6369ZM60.2048 19.169H57.0854V20.669H60.2048V19.169ZM56.3354 19.919V41H57.8354V19.919H56.3354ZM57.0854 40.25H50.7573V41.75H57.0854V40.25ZM64.8388 29.3929L71.3587 41.3588L72.6758 40.6412L66.156 28.6752L64.8388 29.3929ZM72.0173 40.25H65.1138V41.75H72.0173V40.25ZM65.7754 40.6466L59.3833 28.6807L58.0603 29.3875L64.4523 41.3534L65.7754 40.6466ZM58.7218 29.7841H65.4974V28.2841H58.7218V29.7841Z" fill="black" mask="url(#path-4-outside-1_191_2726)"/>
</svg>
