<svg width="20" height="26" viewBox="0 0 20 26" fill="none" xmlns="http://www.w3.org/2000/svg">
<path d="M14.0159 18.5198L0.720801 25.6354C0.704368 25.6442 0.685898 25.6278 0.692775 25.6104L10.43 1.08003C10.4374 1.06156 10.4642 1.06393 10.4682 1.08341L14.0261 18.4981C14.0278 18.5068 14.0237 18.5156 14.0159 18.5198Z" fill="#36AAFF" fill-opacity="0.75" stroke="white" stroke-opacity="0.7" stroke-width="0.3"/>
<path d="M6.32978 18.3319L19.6257 25.448C19.642 25.4567 19.6603 25.4406 19.6538 25.4233L10.4778 1.07872C10.4708 1.06027 10.4442 1.06195 10.4396 1.08112L6.31976 18.3096C6.31765 18.3185 6.32176 18.3276 6.32978 18.3319Z" fill="#FF7176" fill-opacity="0.75" stroke="white" stroke-opacity="0.7" stroke-width="0.3"/>
<path fill-rule="evenodd" clip-rule="evenodd" d="M10.347 20.5064L6.32873 18.3719C6.32069 18.3676 6.31655 18.3584 6.31867 18.3496L10.3762 1.3805L10.429 1.2486C10.4363 1.23018 10.4631 1.23257 10.4671 1.25199L14.0249 18.5364C14.0267 18.5451 14.0226 18.5539 14.0147 18.5581L10.347 20.5064Z" fill="#434343" fill-opacity="0.75"/>
<path d="M6.32873 18.3719L6.3991 18.2394L6.39909 18.2394L6.32873 18.3719ZM10.347 20.5064L10.2766 20.6389L10.347 20.6763L10.4174 20.6389L10.347 20.5064ZM6.31867 18.3496L6.17278 18.3147L6.17278 18.3147L6.31867 18.3496ZM10.3762 1.3805L10.2369 1.3248L10.2329 1.33497L10.2303 1.34562L10.3762 1.3805ZM10.429 1.2486L10.5682 1.3043L10.5682 1.3043L10.429 1.2486ZM10.4671 1.25199L10.614 1.22175L10.614 1.22175L10.4671 1.25199ZM14.0249 18.5364L13.878 18.5666L13.878 18.5667L14.0249 18.5364ZM14.0147 18.5581L14.0851 18.6906L14.0851 18.6906L14.0147 18.5581ZM6.25836 18.5044L10.2766 20.6389L10.4174 20.374L6.3991 18.2394L6.25836 18.5044ZM6.17278 18.3147C6.15477 18.39 6.18994 18.468 6.25838 18.5044L6.39909 18.2394C6.45143 18.2672 6.47832 18.3269 6.46455 18.3845L6.17278 18.3147ZM10.2303 1.34562L6.17278 18.3147L6.46455 18.3845L10.5221 1.41539L10.2303 1.34562ZM10.5155 1.4362L10.5682 1.3043L10.2897 1.1929L10.2369 1.3248L10.5155 1.4362ZM10.5682 1.3043C10.5204 1.42402 10.3462 1.4085 10.3202 1.28224L10.614 1.22175C10.5801 1.05663 10.3523 1.03634 10.2897 1.1929L10.5682 1.3043ZM10.3202 1.28224L13.878 18.5666L14.1719 18.5062L10.614 1.22175L10.3202 1.28224ZM13.878 18.5667C13.8664 18.5101 13.8934 18.4527 13.9443 18.4256L14.0851 18.6906C14.1517 18.6552 14.1871 18.5801 14.1719 18.5062L13.878 18.5667ZM13.9444 18.4256L10.2766 20.374L10.4174 20.6389L14.0851 18.6906L13.9444 18.4256Z" fill="white" fill-opacity="0.7"/>
</svg>
