<svg width="51" height="19" viewBox="0 0 51 19" fill="none" xmlns="http://www.w3.org/2000/svg">
<rect width="51" height="19" fill="white"/>
<path d="M18.9391 13V5.5H20.4891V11.65H22.7391V13H18.9391ZM24.593 13V5.5H26.143V13H24.593ZM30.7891 13.25L27.6391 5.5H29.2224L30.4474 8.58333C30.5141 8.75556 30.5807 8.925 30.6474 9.09167C30.7141 9.25278 30.778 9.43333 30.8391 9.63333C30.8946 9.43889 30.953 9.26389 31.0141 9.10833C31.0807 8.94722 31.1502 8.77222 31.2224 8.58333L32.4474 5.5H33.9557L30.8057 13.25H30.7891ZM35.4109 13V5.5H39.4109V6.8H36.8609V7.95H38.8276V9.2H36.8609V11.65H39.4109V13H35.4109Z" fill="#05C17D"/>
<circle cx="13" cy="10" r="2" fill="#05C17D"/>
</svg>
